{
  "accessors": [
    {
      "bufferView": 2,
      "componentType": 5126,
      "count": 3321,
      "max": [
        3.634742259979248,
        5.894643783569336,
        1.679487943649292
      ],
      "min": [
        -3.5996477603912354,
        4.346853256225586,
        -1.9004006385803223
      ],
      "type": "VEC3"
    },
    {
      "bufferView": 2,
      "byteOffset": 39852,
      "componentType": 5126,
      "count": 3321,
      "max": [
        1.0,
        1.0,
        1.0
      ],
      "min": [
        -1.0,
        -1.0,
        -1.0
      ],
      "type": "VEC3"
    },
    {
      "bufferView": 3,
      "componentType": 5126,
      "count": 3321,
      "max": [
        1.0,
        1.0,
        1.0,
        1.0
      ],
      "min": [
        -0.8090288043022156,
        -1.0,
        -1.0,
        1.0
      ],
      "type": "VEC4"
    },
    {
      "bufferView": 1,
      "componentType": 5126,
      "count": 3321,
      "max": [
        0.9763422012329102,
        0.9980079531669617
      ],
      "min": [
        0.001867513987235725,
        0.00199203216470778
      ],
      "type": "VEC2"
    },
    {
      "bufferView": 0,
      "componentType": 5125,
      "count": 8658,
      "type": "SCALAR"
    },
    {
      "bufferView": 2,
      "byteOffset": 79704,
      "componentType": 5126,
      "count": 2516,
      "max": [
        2.7219595909118652,
        4.344657897949219,
        1.542623519897461
      ],
      "min": [
        -2.7157936096191406,
        0.0976400375366211,
        -1.7718425989151
      ],
      "type": "VEC3"
    },
    {
      "bufferView": 2,
      "byteOffset": 109896,
      "componentType": 5126,
      "count": 2516,
      "max": [
        0.9998620748519897,
        0.8268342018127441,
        0.9998620748519897
      ],
      "min": [
        -0.9998620748519897,
        -0.9957232475280762,
        -0.999862015247345
      ],
      "type": "VEC3"
    },
    {
      "bufferView": 3,
      "byteOffset": 53136,
      "componentType": 5126,
      "count": 2516,
      "max": [
        1.0,
        0.4957328140735626,
        0.9999890923500061,
        1.0
      ],
      "min": [
        -1.0,
        -0.5882604122161865,
        -0.9999994039535522,
        -1.0
      ],
      "type": "VEC4"
    },
    {
      "bufferView": 1,
      "byteOffset": 26568,
      "componentType": 5126,
      "count": 2516,
      "max": [
        0.9761266708374023,
        0.9641907215118408
      ],
      "min": [
        0.01727703958749771,
        0.09892375022172928
      ],
      "type": "VEC2"
    },
    {
      "bufferView": 0,
      "byteOffset": 34632,
      "componentType": 5125,
      "count": 10296,
      "type": "SCALAR"
    },
    {
      "bufferView": 2,
      "byteOffset": 140088,
      "componentType": 5126,
      "count": 968,
      "max": [
        2.6127657890319824,
        1.8189213275909424,
        1.444968581199646
      ],
      "min": [
        -2.5876896381378174,
        1.6052734851837158,
        -1.661460041999817
      ],
      "type": "VEC3"
    },
    {
      "bufferView": 2,
      "byteOffset": 151704,
      "componentType": 5126,
      "count": 968,
      "max": [
        1.0,
        1.0,
        1.0
      ],
      "min": [
        -1.0,
        -1.0,
        -1.0
      ],
      "type": "VEC3"
    },
    {
      "bufferView": 3,
      "byteOffset": 93392,
      "componentType": 5126,
      "count": 968,
      "max": [
        1.0,
        1.0,
        1.0,
        1.0
      ],
      "min": [
        -0.707108199596405,
        -1.0,
        -1.0,
        1.0
      ],
      "type": "VEC4"
    },
    {
      "bufferView": 1,
      "byteOffset": 46696,
      "componentType": 5126,
      "count": 968,
      "max": [
        0.9776467084884644,
        0.9980080127716064
      ],
      "min": [
        0.001951390877366066,
        0.0019920319318771362
      ],
      "type": "VEC2"
    },
    {
      "bufferView": 0,
      "byteOffset": 75816,
      "componentType": 5125,
      "count": 2196,
      "type": "SCALAR"
    }
  ],
  "asset": {
    "extras": {
      "author": "Zerostyle (https://sketchfab.com/hoanganh.trine)",
      "license": "CC-BY-4.0 (http://creativecommons.org/licenses/by/4.0/)",
      "source": "https://sketchfab.com/3d-models/victorian-console-table-f94fde3014d748f0b35ca7283dd13866",
      "title": "Victorian Console Table"
    },
    "generator": "Sketchfab-14.35.0",
    "version": "2.0"
  },
  "bufferViews": [
    {
      "buffer": 0,
      "byteLength": 84600,
      "name": "floatBufferViews",
      "target": 34963
    },
    {
      "buffer": 0,
      "byteLength": 54440,
      "byteOffset": 84600,
      "byteStride": 8,
      "name": "floatBufferViews",
      "target": 34962
    },
    {
      "buffer": 0,
      "byteLength": 163320,
      "byteOffset": 139040,
      "byteStride": 12,
      "name": "floatBufferViews",
      "target": 34962
    },
    {
      "buffer": 0,
      "byteLength": 108880,
      "byteOffset": 302360,
      "byteStride": 16,
      "name": "floatBufferViews",
      "target": 34962
    }
  ],
  "buffers": [
    {
      "byteLength": 411240,
      "uri": "scene.bin"
    }
  ],
  "images": [
    {
      "uri": "textures/table_top_baseColor.jpeg"
    },
    {
      "uri": "textures/table_top_metallicRoughness.png"
    },
    {
      "uri": "textures/table_top_normal.png"
    },
    {
      "uri": "textures/table_legs_baseColor.jpeg"
    },
    {
      "uri": "textures/table_legs_metallicRoughness.png"
    },
    {
      "uri": "textures/table_legs_normal.png"
    },
    {
      "uri": "textures/table_bottom_baseColor.jpeg"
    },
    {
      "uri": "textures/table_bottom_metallicRoughness.png"
    },
    {
      "uri": "textures/table_bottom_normal.png"
    }
  ],
  "materials": [
    {
      "doubleSided": true,
      "name": "table_top",
      "normalTexture": {
        "index": 2
      },
      "occlusionTexture": {
        "index": 1
      },
      "pbrMetallicRoughness": {
        "baseColorTexture": {
          "index": 0
        },
        "metallicRoughnessTexture": {
          "index": 1
        }
      }
    },
    {
      "doubleSided": true,
      "name": "table_legs",
      "normalTexture": {
        "index": 5
      },
      "occlusionTexture": {
        "index": 4
      },
      "pbrMetallicRoughness": {
        "baseColorTexture": {
          "index": 3
        },
        "metallicRoughnessTexture": {
          "index": 4
        }
      }
    },
    {
      "doubleSided": true,
      "name": "table_bottom",
      "normalTexture": {
        "index": 8
      },
      "occlusionTexture": {
        "index": 7
      },
      "pbrMetallicRoughness": {
        "baseColorTexture": {
          "index": 6
        },
        "metallicRoughnessTexture": {
          "index": 7
        }
      }
    }
  ],
  "meshes": [
    {
      "name": "pasted__pCube12_table_top_0",
      "primitives": [
        {
          "attributes": {
            "NORMAL": 1,
            "POSITION": 0,
            "TANGENT": 2,
            "TEXCOORD_0": 3
          },
          "indices": 4,
          "material": 0,
          "mode": 4
        }
      ]
    },
    {
      "name": "group31_pasted__group28_pasted__pasted__pCylinder17_table_legs_0",
      "primitives": [
        {
          "attributes": {
            "NORMAL": 6,
            "POSITION": 5,
            "TANGENT": 7,
            "TEXCOORD_0": 8
          },
          "indices": 9,
          "material": 1,
          "mode": 4
        }
      ]
    },
    {
      "name": "pCube8_table_bottom_0",
      "primitives": [
        {
          "attributes": {
            "NORMAL": 11,
            "POSITION": 10,
            "TANGENT": 12,
            "TEXCOORD_0": 13
          },
          "indices": 14,
          "material": 2,
          "mode": 4
        }
      ]
    }
  ],
  "nodes": [
    {
      "children": [
        1
      ],
      "matrix": [
        1.0,
        0.0,
        0.0,
        0.0,
        0.0,
        2.220446049250313e-16,
        -1.0,
        0.0,
        0.0,
        1.0,
        2.220446049250313e-16,
        0.0,
        0.0,
        0.0,
        0.0,
        1.0
      ],
      "name": "Sketchfab_model"
    },
    {
      "children": [
        2
      ],
      "matrix": [
        0.009999999776482582,
        0.0,
        0.0,
        0.0,
        0.0,
        0.0,
        0.009999999776482582,
        0.0,
        0.0,
        -0.009999999776482582,
        0.0,
        0.0,
        0.0,
        0.0,
        0.0,
        1.0
      ],
      "name": "table.fbx"
    },
    {
      "children": [
        3,
        5,
        7
      ],
      "name": "RootNode"
    },
    {
      "children": [
        4
      ],
      "name": "pasted__pCube12"
    },
    {
      "mesh": 0,
      "name": "pasted__pCube12_table_top_0"
    },
    {
      "children": [
        6
      ],
      "name": "group31_pasted__group28_pasted__pasted__pCylinder17"
    },
    {
      "mesh": 1,
      "name": "group31_pasted__group28_pasted__pasted__pCylinder17_table_legs_0"
    },
    {
      "children": [
        8
      ],
      "name": "pCube8"
    },
    {
      "mesh": 2,
      "name": "pCube8_table_bottom_0"
    }
  ],
  "samplers": [
    {
      "magFilter": 9729,
      "minFilter": 9987,
      "wrapS": 10497,
      "wrapT": 10497
    }
  ],
  "scene": 0,
  "scenes": [
    {
      "name": "Sketchfab_Scene",
      "nodes": [
        0
      ]
    }
  ],
  "textures": [
    {
      "sampler": 0,
      "source": 0
    },
    {
      "sampler": 0,
      "source": 1
    },
    {
      "sampler": 0,
      "source": 2
    },
    {
      "sampler": 0,
      "source": 3
    },
    {
      "sampler": 0,
      "source": 4
    },
    {
      "sampler": 0,
      "source": 5
    },
    {
      "sampler": 0,
      "source": 6
    },
    {
      "sampler": 0,
      "source": 7
    },
    {
      "sampler": 0,
      "source": 8
    }
  ]
}
